<?xml version="1.0" standalone="no"?>
<!DOCTYPE svg PUBLIC "-//W3C//DTD SVG 20010904//EN"
 "http://www.w3.org/TR/2001/REC-SVG-20010904/DTD/svg10.dtd">
<svg version="1.0" xmlns="http://www.w3.org/2000/svg"
 width="300.000000pt" height="168.000000pt" viewBox="0 0 300.000000 168.000000"
 preserveAspectRatio="xMidYMid meet">

<g transform="translate(0.000000,168.000000) scale(0.100000,-0.100000)"
fill="#000000" stroke="none">
<path d="M0 901 c0 -614 3 -780 13 -784 9 -4 9 -6 0 -6 -9 -1 -13 -19 -13 -56
l0 -55 1500 0 1500 0 0 840 0 840 -1500 0 -1500 0 0 -779z m2907 761 c8 -5 14
-84 19 -255 l7 -247 -105 0 c-82 0 -107 3 -111 14 -3 8 -6 120 -7 250 l-1 235
88 4 c48 1 90 4 93 5 3 1 10 -2 17 -6z m-2678 -258 c1 -166 -2 -243 -9 -239
-13 8 -14 485 -1 485 5 0 9 -111 10 -246z m866 226 c4 -6 -7 -10 -25 -10 -18
0 -29 4 -25 10 3 6 15 10 25 10 10 0 22 -4 25 -10z m910 0 c-3 -5 -13 -10 -21
-10 -8 0 -14 5 -14 10 0 6 9 10 21 10 11 0 17 -4 14 -10z m321 -76 c-8 -22
-46 -18 -46 6 0 26 32 44 43 24 5 -9 6 -22 3 -30z m135 9 c1 -25 2 -25 7 -7 6
19 9 20 20 8 7 -8 8 -14 2 -14 -5 0 -10 -5 -10 -11 0 -12 -29 -38 -42 -39 -9
0 -10 52 -2 74 10 25 24 19 25 -11z m-2011 -18 c0 -19 -4 -35 -10 -35 -11 0
-14 53 -3 63 11 12 13 8 13 -28z m137 -2 c-3 -10 -5 -4 -5 12 0 17 2 24 5 18
2 -7 2 -21 0 -30z m903 27 c0 -5 -4 -10 -10 -10 -5 0 -10 5 -10 10 0 6 5 10
10 10 6 0 10 -4 10 -10z m-1226 -226 c-13 -49 -24 -33 -23 33 l0 68 15 -39 c7
-21 11 -49 8 -62z m79 46 c5 -4 5 -30 1 -56 l-7 -49 -11 35 -11 35 -3 -47 c-5
-77 -22 -55 -22 28 0 73 1 75 23 69 12 -4 26 -11 30 -15z m1740 -45 c19 -10
27 -10 31 -2 2 7 2 -4 -1 -23 -8 -47 -28 -84 -57 -107 l-24 -19 31 -14 32 -13
-40 -8 c-34 -7 -31 -7 19 -4 32 2 55 1 52 -2 -3 -4 2 -16 13 -27 30 -33 62
-102 68 -145 3 -25 -1 -61 -12 -93 -17 -54 -63 -127 -79 -128 -5 0 -17 -7 -27
-16 -20 -18 -97 -42 -120 -37 -10 3 -15 11 -12 21 3 12 -4 22 -19 29 -46 23
-64 24 -87 2 -18 -17 -36 -21 -91 -23 -37 0 -66 2 -64 6 2 4 1 9 -4 12 -5 3
-9 40 -10 83 -3 126 27 229 82 286 27 27 38 32 76 31 l45 -2 -40 7 -40 6 47
19 c41 16 53 27 83 81 19 35 32 70 29 78 -4 12 4 15 44 15 27 1 60 -5 75 -13z
m217 6 c0 -5 -12 -14 -28 -20 -15 -6 -41 -22 -57 -36 -26 -21 -27 -23 -7 -18
17 4 22 1 22 -13 0 -15 5 -13 28 12 62 68 112 81 112 29 0 -37 -99 -138 -131
-133 -17 2 -24 9 -23 25 l0 22 -29 -25 c-29 -25 -71 -32 -82 -14 -11 18 28 82
69 112 32 24 110 67 124 68 1 0 2 -4 2 -9z m-1355 -19 c-29 -6 -29 -6 10 -12
32 -6 24 -8 -45 -10 l-85 -4 75 -6 75 -6 -85 -4 -85 -4 75 -6 c65 -6 56 -7
-75 -10 -126 -3 -139 -5 -80 -10 39 -4 59 -7 46 -8 -46 -4 -9 -17 62 -23 l72
-6 -80 -3 -80 -4 75 -6 c71 -6 69 -7 -50 -10 -93 -2 -114 -5 -80 -10 41 -6 38
-7 -35 -10 l-80 -4 70 -6 70 -6 -87 -2 -88 -2 0 30 c0 17 5 30 13 31 10 0 10
2 0 6 -8 3 -13 24 -13 54 l0 48 143 4 c232 5 294 4 262 -1z m134 -21 c6 -10 7
-21 4 -25 -3 -3 -1 -6 7 -6 10 0 10 -3 0 -15 -16 -20 -59 -19 -67 1 -8 21 13
64 31 64 9 0 20 -8 25 -19z m185 3 c15 -14 16 -14 16 0 0 9 5 16 10 16 6 0 10
-7 10 -17 0 -15 1 -15 18 0 27 24 50 23 28 -2 -15 -16 -15 -19 -1 -31 8 -7 15
-16 15 -21 0 -14 -17 -11 -34 6 -8 8 -17 15 -20 15 -3 0 -6 -7 -6 -15 0 -8 -4
-15 -10 -15 -5 0 -10 7 -10 16 0 14 -1 14 -16 0 -8 -9 -29 -16 -45 -16 -26 0
-29 3 -29 30 0 23 -4 30 -20 30 -16 0 -20 -7 -20 -30 0 -16 -4 -30 -10 -30 -5
0 -10 14 -10 30 0 20 -5 30 -15 30 -8 0 -15 5 -15 10 0 17 146 12 164 -6z
m1276 -54 c0 -5 -5 -10 -11 -10 -5 0 -7 5 -4 10 3 6 8 10 11 10 2 0 4 -4 4
-10z m-1695 -10 c3 -5 -3 -10 -15 -10 -12 0 -18 5 -15 10 3 6 10 10 15 10 5 0
12 -4 15 -10z m62 -6 c-3 -3 -12 -4 -19 -1 -8 3 -5 6 6 6 11 1 17 -2 13 -5z
m1613 -14 c0 -5 -7 -10 -16 -10 -8 0 -12 5 -9 10 3 6 10 10 16 10 5 0 9 -4 9
-10z m-1423 -37 c-3 -10 -5 -4 -5 12 0 17 2 24 5 18 2 -7 2 -21 0 -30z m129
10 c0 -12 -4 -23 -8 -23 -4 0 -8 6 -8 13 0 8 -3 8 -9 -2 -12 -18 -41 -7 -42
16 -1 12 -3 10 -9 -7 l-8 -25 -1 26 c-1 23 2 25 42 25 39 1 43 -2 43 -23z m34
-4 c0 -10 -4 -19 -10 -19 -5 0 -10 12 -10 26 0 14 4 23 10 19 6 -3 10 -15 10
-26z m177 20 c-1 -3 3 -12 10 -20 9 -12 -2 -14 -73 -15 -81 -2 -84 -1 -84 21
0 22 3 23 75 22 41 -1 74 -5 72 -8z m223 -9 c0 -20 -4 -22 -35 -22 -30 0 -35
2 -36 20 -1 14 -2 13 -7 -3 l-5 -20 -8 20 c-8 20 -8 20 -8 0 -1 -16 -8 -21
-31 -20 -20 0 -30 5 -30 15 -1 11 -4 10 -15 -4 -14 -19 -15 -19 -15 6 0 26 0
26 95 27 89 2 95 1 95 -19z m-1413 -37 c-3 -10 -5 -2 -5 17 0 19 2 27 5 18 2
-10 2 -26 0 -35z m804 30 c1 -17 2 -17 6 0 4 16 24 25 22 10 -4 -25 5 -41 37
-61 45 -30 90 -101 99 -157 6 -40 9 -45 33 -45 46 0 89 -34 103 -81 12 -38 11
-45 -9 -80 -27 -47 -27 -49 0 -46 17 1 27 -10 50 -52 17 -32 28 -46 29 -35 1
18 2 18 6 1 4 -16 6 -16 16 -4 8 10 23 13 45 10 45 -7 40 -20 -13 -27 -25 -4
-45 -10 -45 -13 0 -2 10 -13 22 -23 22 -17 20 -18 -102 -24 -206 -12 -855 -3
-855 11 0 6 -3 15 -7 19 -12 11 -10 72 2 79 6 4 8 10 5 15 -7 11 12 16 70 19
44 2 57 -3 95 -32 83 -63 237 -89 295 -51 15 10 48 19 72 20 47 3 153 58 153
79 0 14 -38 37 -44 26 -3 -4 -19 -6 -37 -3 l-31 5 28 24 c17 14 21 20 9 14
-36 -17 -58 -38 -61 -55 -2 -12 1 -14 9 -8 11 9 47 13 47 6 0 -11 -65 -34 -95
-34 -41 0 -47 17 -9 26 30 8 21 19 -23 29 -29 6 -33 4 -33 -14 0 -16 -6 -21
-25 -21 -20 0 -25 5 -25 24 0 18 -10 31 -40 47 -22 13 -40 27 -40 33 0 5 -3 7
-6 3 -3 -3 4 -20 16 -37 19 -26 20 -34 9 -41 -10 -6 -24 2 -47 24 -53 51 -66
83 -66 167 -1 64 3 82 26 121 32 54 96 111 136 120 15 4 53 7 85 8 31 0 57 6
57 11 0 18 30 11 31 -7z m1406 -25 c-3 -8 -6 -5 -6 6 -1 11 2 17 5 13 3 -3 4
-12 1 -19z m132 -158 c-1 -51 -5 -70 -14 -66 -16 6 -35 -13 -29 -29 3 -7 1
-16 -5 -20 -11 -6 -13 2 -16 73 -1 42 10 57 18 25 3 -10 5 -3 6 14 1 27 25 73
39 73 2 0 2 -32 1 -70z m-1132 28 c-3 -8 -6 -5 -6 6 -1 11 2 17 5 13 3 -3 4
-12 1 -19z m1190 -14 c5 -13 -16 -129 -22 -122 -1 2 -5 16 -9 31 -4 19 -3 26
3 22 7 -3 8 0 5 9 -3 9 -1 16 6 16 6 0 8 5 4 11 -4 8 -9 7 -15 -2 -4 -7 -11
-10 -15 -6 -10 10 17 38 30 30 6 -4 5 1 -3 10 -9 12 -10 17 -2 17 6 0 14 -7
18 -16z m-2300 -36 c-3 -8 -6 -5 -6 6 -1 11 2 17 5 13 3 -3 4 -12 1 -19z
m2107 -7 c7 -10 -53 -18 -161 -21 -45 -1 -73 3 -73 9 0 6 38 12 93 14 50 1
102 4 114 5 12 1 24 -2 27 -7z m-944 -31 c0 -5 -2 -10 -4 -10 -3 0 -8 5 -11
10 -3 6 -1 10 4 10 6 0 11 -4 11 -10z m-25 -65 c34 -30 65 -55 69 -55 3 0 6
25 6 55 0 48 2 55 20 55 17 0 20 -7 21 -55 2 -132 0 -172 -9 -159 -8 13 -119
104 -127 104 -2 0 -4 -17 -3 -37 1 -22 -4 -39 -11 -41 -11 -4 -10 -6 0 -13 10
-6 8 -9 -8 -9 -22 0 -23 3 -23 89 0 49 -3 96 -6 105 -10 27 5 18 71 -39z
m1095 -38 c0 -10 -5 -17 -11 -15 -6 2 -10 7 -10 11 1 4 1 17 1 30 0 18 2 19
10 7 5 -8 10 -23 10 -33z m65 -46 c-4 -25 -6 -59 -6 -75 1 -17 -1 -27 -5 -24
-11 12 -11 113 0 120 8 5 7 8 -1 8 -7 0 -13 10 -13 21 0 18 2 20 16 8 12 -10
14 -23 9 -58z m-55 -57 c0 -8 -5 -14 -11 -14 -5 0 -7 5 -4 10 3 6 1 10 -4 10
-6 0 -11 7 -11 16 0 14 3 14 15 4 8 -7 15 -19 15 -26z m-2012 -21 c-10 -2 -26
-2 -35 0 -10 3 -2 5 17 5 19 0 27 -2 18 -5z m1993 -18 c5 4 9 -3 9 -14 0 -13
-6 -21 -17 -21 -13 0 -19 9 -20 33 -2 26 0 29 8 14 6 -9 14 -15 20 -12z m-46
-15 c3 -5 1 -10 -4 -10 -6 0 -11 5 -11 10 0 6 2 10 4 10 3 0 8 -4 11 -10z
m-965 -45 c0 6 18 11 40 11 39 1 53 -9 28 -19 -10 -4 -10 -6 0 -6 7 -1 15 6
18 14 9 21 23 19 21 -4 -1 -16 -9 -18 -57 -16 -73 4 -70 3 -70 23 0 14 2 15
10 2 5 -8 10 -10 10 -5z m210 5 c0 -7 6 -7 20 0 15 8 20 8 20 -3 0 -8 -7 -15
-15 -16 -66 -8 -122 7 -82 22 22 9 57 7 57 -3z m102 -10 c5 -12 7 -12 7 3 1
13 10 17 41 17 31 0 40 -4 41 -17 1 -17 2 -17 6 0 2 9 13 17 23 17 14 0 18 -5
13 -16 -4 -11 -8 -12 -13 -4 -5 8 -9 6 -14 -5 -5 -14 -9 -15 -22 -4 -13 10
-17 10 -25 -2 -7 -11 -9 -10 -10 6 l0 20 -9 -20 c-8 -19 -9 -19 -9 -1 -1 18
-2 18 -13 4 -17 -22 -62 -18 -66 5 -3 14 2 18 20 15 12 -2 26 -10 30 -18z
m539 -1 c8 -15 8 -24 0 -32 -8 -8 -11 -8 -11 1 0 7 -7 12 -15 12 -8 0 -15 -5
-15 -11 0 -5 -4 -7 -10 -4 -11 7 16 55 31 55 4 0 13 -9 20 -21z m99 -20 c0
-10 -4 -19 -10 -19 -5 0 -10 12 -10 26 0 14 4 23 10 19 6 -3 10 -15 10 -26z
m-110 -99 c0 -5 -5 -10 -11 -10 -5 0 -7 -4 -4 -10 3 -5 1 -10 -6 -10 -7 0 -4
-6 7 -14 19 -15 19 -15 -1 -14 -11 1 -31 -2 -45 -6 -19 -6 -21 -5 -10 3 10 7
11 11 3 11 -23 0 -14 19 12 26 14 3 25 10 25 16 0 5 -4 7 -8 4 -4 -2 -14 -1
-22 5 -11 6 -4 9 23 9 20 0 37 -4 37 -10z m61 3 c-19 -3 -41 -12 -47 -21 -12
-15 -12 -14 -7 6 4 19 11 22 47 20 39 -1 40 -1 7 -5z m-276 -83 c4 -16 13 -30
21 -30 8 0 14 -6 15 -12 0 -7 2 -21 4 -30 2 -11 -2 -15 -10 -11 -10 3 -13 -2
-9 -22 3 -19 1 -26 -8 -23 -11 4 -32 67 -42 131 -6 38 20 36 29 -3z m92 24
c-3 -3 -12 -4 -19 -1 -8 3 -5 6 6 6 11 1 17 -2 13 -5z m37 -49 c3 -8 12 -15
21 -15 8 0 15 -4 15 -8 0 -7 46 -9 105 -3 17 1 18 3 5 11 -12 8 -9 10 13 10
15 0 27 -4 27 -9 0 -5 9 -11 21 -14 13 -4 18 -10 14 -17 -6 -9 -2 -9 14 0 12
6 19 16 15 23 -5 8 -2 8 7 -1 12 -11 12 -14 -1 -22 -14 -9 -7 -14 13 -11 4 1
4 -7 -2 -16 -5 -10 -7 -31 -4 -46 4 -20 1 -27 -10 -27 -9 0 -19 4 -22 10 -15
24 -30 14 -94 -57 -22 -26 -37 -33 -64 -33 -20 0 -38 -6 -41 -12 -3 -10 -9 -8
-19 4 -8 10 -16 15 -19 13 -3 -3 -10 1 -17 9 -15 18 -33 78 -21 71 5 -3 11 8
15 24 3 17 15 43 27 58 11 15 3 10 -18 -12 -35 -38 -36 -39 -18 -8 14 26 16
35 6 45 -7 7 -12 20 -12 30 0 22 35 25 44 3z m-1734 -45 c0 -5 11 -10 23 -10
27 0 54 -44 39 -64 -5 -6 -12 -23 -16 -38 -9 -41 -59 -71 -104 -64 -20 3 -44
7 -52 7 -24 2 -50 30 -50 53 1 17 5 14 20 -14 11 -21 19 -28 20 -18 0 9 -4 20
-10 23 -30 19 4 105 49 122 34 14 81 16 81 3z m1090 -80 c0 -5 -4 -10 -10 -10
-5 0 -10 5 -10 10 0 6 5 10 10 10 6 0 10 -4 10 -10z m365 -60 c-3 -5 -11 -10
-16 -10 -6 0 -7 5 -4 10 3 6 11 10 16 10 6 0 7 -4 4 -10z m545 -89 c0 -5 3
-16 6 -25 4 -10 1 -16 -9 -16 -9 0 -14 10 -14 25 0 14 3 25 8 25 5 0 9 -4 9
-9z m100 -11 c0 -5 -13 -10 -29 -10 -17 0 -33 5 -36 10 -4 6 8 10 29 10 20 0
36 -4 36 -10z m-1102 -6 c12 -4 22 -13 22 -20 0 -11 -24 -14 -120 -14 -66 0
-120 3 -120 6 0 4 8 13 18 20 18 14 157 19 200 8z m849 -9 c3 -9 2 -19 -2 -23
-4 -4 -10 -1 -12 6 -3 6 -8 10 -12 8 -4 -3 -8 1 -8 9 0 20 26 19 34 0z m390
-1 c-3 -3 -12 -4 -19 -1 -8 3 -5 6 6 6 11 1 17 -2 13 -5z m66 -71 c-24 -2 -62
-2 -85 0 -24 2 -5 4 42 4 47 0 66 -2 43 -4z"/>
<path d="M2733 1183 c9 -2 23 -2 30 0 6 3 -1 5 -18 5 -16 0 -22 -2 -12 -5z"/>
<path d="M1977 1278 c-34 -61 -35 -63 -15 -71 29 -11 53 -1 83 35 35 42 32 92
-6 96 -23 3 -31 -5 -62 -60z"/>
<path d="M1766 1053 c-6 -14 -5 -15 5 -6 7 7 10 15 7 18 -3 3 -9 -2 -12 -12z"/>
<path d="M1940 1057 c0 -16 -41 -37 -71 -37 -18 0 -20 -4 -14 -30 4 -19 2 -36
-5 -45 -15 -18 -7 -30 41 -61 22 -13 37 -29 34 -34 -3 -6 -1 -10 4 -10 7 0 11
24 11 59 0 61 12 84 28 55 11 -19 32 -11 32 12 0 8 5 12 10 9 6 -4 8 -10 5
-15 -6 -10 16 -19 33 -13 20 7 14 58 -10 79 -12 10 -18 13 -14 7 4 -8 2 -13
-6 -13 -18 1 -48 25 -48 39 0 6 -7 11 -15 11 -8 0 -15 -6 -15 -13z m-13 -109
c-3 -8 -6 -5 -6 6 -1 11 2 17 5 13 3 -3 4 -12 1 -19z"/>
<path d="M1983 892 c-8 -19 4 -27 21 -13 11 9 15 9 18 0 5 -16 28 -2 28 17 0
18 -60 15 -67 -4z"/>
<path d="M1751 895 c0 -5 6 -21 14 -35 8 -14 14 -20 14 -15 0 6 -6 21 -14 35
-8 14 -14 21 -14 15z"/>
<path d="M1732 789 c2 -7 10 -15 17 -17 8 -3 12 1 9 9 -2 7 -10 15 -17 17 -8
3 -12 -1 -9 -9z"/>
<path d="M2303 1288 c-35 -38 -68 -98 -53 -98 13 0 90 98 90 116 0 19 -2 18
-37 -18z"/>
<path d="M2156 1238 c-18 -25 -21 -48 -7 -48 11 0 51 48 51 61 0 17 -29 9 -44
-13z"/>
<path d="M863 1323 c9 -2 23 -2 30 0 6 3 -1 5 -18 5 -16 0 -22 -2 -12 -5z"/>
<path d="M723 1313 c9 -2 25 -2 35 0 9 3 1 5 -18 5 -19 0 -27 -2 -17 -5z"/>
<path d="M733 1283 c15 -2 37 -2 50 0 12 2 0 4 -28 4 -27 0 -38 -2 -22 -4z"/>
<path d="M663 1243 c15 -2 39 -2 55 0 15 2 2 4 -28 4 -30 0 -43 -2 -27 -4z"/>
<path d="M621 1226 c2 -2 29 -6 59 -9 34 -3 47 -2 35 3 -19 8 -103 14 -94 6z"/>
<path d="M608 1193 c7 -3 16 -2 19 1 4 3 -2 6 -13 5 -11 0 -14 -3 -6 -6z"/>
<path d="M1030 1283 c0 -19 17 -24 30 -8 9 10 9 15 1 15 -6 0 -11 -6 -11 -12
0 -9 -4 -8 -10 2 -6 9 -10 10 -10 3z"/>
<path d="M1210 1290 c0 -13 7 -20 20 -20 13 0 20 7 20 20 0 13 -7 20 -20 20
-13 0 -20 -7 -20 -20z"/>
<path d="M933 1153 c9 -2 23 -2 30 0 6 3 -1 5 -18 5 -16 0 -22 -2 -12 -5z"/>
<path d="M1041 1154 c-1 -6 18 -23 42 -38 l42 -28 -24 26 c-14 14 -30 26 -37
26 -7 0 -15 6 -17 13 -3 6 -6 7 -6 1z"/>
<path d="M870 1140 c0 -5 7 -7 15 -4 8 4 15 8 15 10 0 2 -7 4 -15 4 -8 0 -15
-4 -15 -10z"/>
<path d="M836 1114 c-26 -26 -66 -80 -66 -90 0 -4 7 3 17 16 9 14 30 40 46 58
31 32 33 46 3 16z"/>
<path d="M990 1055 c11 -13 8 -15 -18 -15 -41 0 -80 -19 -88 -42 -3 -10 -9
-16 -14 -13 -9 6 -20 -18 -20 -45 0 -10 9 -28 20 -41 l19 -24 1 38 c0 38 1 38
30 32 19 -4 36 -2 45 5 12 10 15 10 15 -2 0 -8 -5 -19 -12 -26 -8 -8 -9 -12
-1 -12 16 0 43 29 43 46 0 8 5 14 11 14 5 0 7 -5 4 -10 -6 -10 31 -49 48 -50
15 0 6 76 -12 106 -11 17 -34 36 -51 43 -28 9 -31 9 -20 -4z"/>
<path d="M762 985 c0 -16 2 -22 5 -12 2 9 2 23 0 30 -3 6 -5 -1 -5 -18z"/>
<path d="M1172 970 c0 -19 2 -27 5 -17 2 9 2 25 0 35 -3 9 -5 1 -5 -18z"/>
<path d="M761 910 c0 -14 28 -72 29 -59 0 4 -7 22 -15 40 -8 19 -14 27 -14 19z"/>
<path d="M945 902 c-11 -11 -5 -51 8 -48 6 3 26 7 42 10 28 6 29 5 11 -9 -21
-16 -11 -21 12 -6 26 16 9 45 -31 52 -20 3 -39 4 -42 1z"/>
<path d="M1204 873 c-25 -58 -33 -102 -21 -110 5 -3 7 -1 4 4 -4 7 8 9 36 6
52 -5 76 12 84 60 6 41 -22 77 -62 77 -19 0 -28 -9 -41 -37z"/>
<path d="M1450 650 c0 -5 5 -10 10 -10 6 0 10 5 10 10 0 6 -4 10 -10 10 -5 0
-10 -4 -10 -10z"/>
<path d="M1580 649 c0 -5 5 -7 10 -4 6 3 10 8 10 11 0 2 -4 4 -10 4 -5 0 -10
-5 -10 -11z"/>
<path d="M524 293 c4 -25 26 -28 26 -4 0 12 -6 21 -14 21 -8 0 -13 -8 -12 -17z"/>
</g>
</svg>
